<svg width="24" height="22" xmlns="http://www.w3.org/2000/svg">

 <g>
  <title>background</title>
  <rect fill="none" id="canvas_background" height="402" width="582" y="-1" x="-1"/>
 </g>
 <g>
  <title>Layer 1</title>
  <path id="svg_1" fill="#ed1915" d="m12,8.22892c0.234,-1.12 1.547,-6.229 5.382,-6.229c2.22,0 4.618,1.551 4.618,5.003c0,3.90698 -3.627,8.46998 -10,12.62898c-6.373,-4.159 -10,-8.722 -10,-12.62898c0,-3.484 2.369,-5.005 4.577,-5.005c3.923,0 5.145,5.126 5.423,6.231zm-12,-1.226c0,4.06798 3.06,9.48098 12,14.99698c8.94,-5.516 12,-10.929 12,-14.99698c0,-7.962 -9.648,-9.028 -12,-3.737c-2.338,-5.262 -12,-4.27 -12,3.737z"/>
  <path id="svg_8" d="m11.47457,5.043126c4.535237,-12.049241 22.304443,0 0,15.491881c-22.304443,-15.491881 -4.535237,-27.541121 0,-15.491881z" fill-opacity="null" stroke-opacity="null" stroke-width="null" stroke="null" fill="#ed1915"/>
 </g>
</svg>